<?xml version="1.0" encoding="UTF-8" standalone="no"?>
<svg width="180mm" height="150mm" viewBox="0 0 180 150" version="1.1" id="svg5" xmlns="http://www.w3.org/2000/svg" xmlns:svg="http://www.w3.org/2000/svg">
<g id="checkers">
<rect width="30" height="30" x="0" y="0"></rect>
<rect width="30" height="30" x="60" y="0"></rect>
<rect width="30" height="30" x="120" y="0"></rect>
<rect width="30" height="30" x="30" y="30"></rect>
<rect width="30" height="30" x="90" y="30"></rect>
<rect width="30" height="30" x="150" y="30"></rect>
<rect width="30" height="30" x="0" y="60"></rect>
<rect width="30" height="30" x="60" y="60"></rect>
<rect width="30" height="30" x="120" y="60"></rect>
<rect width="30" height="30" x="30" y="90"></rect>
<rect width="30" height="30" x="90" y="90"></rect>
<rect width="30" height="30" x="150" y="90"></rect>
<rect width="30" height="30" x="0" y="120"></rect>
<rect width="30" height="30" x="60" y="120"></rect>
<rect width="30" height="30" x="120" y="120"></rect>

</g>
</svg>
